<?xml version="1.0" encoding="utf-8"?>
<!-- Generator: Adobe Illustrator 24.1.2, SVG Export Plug-In . SVG Version: 6.00 Build 0)  -->
<svg version="1.1" xmlns="http://www.w3.org/2000/svg" xmlns:xlink="http://www.w3.org/1999/xlink" x="0px" y="0px"
	 viewBox="0 0 436.9 506" enable-background="new 0 0 436.9 506" xml:space="preserve">
<g id="Tube">
	<g>
		<path fill="#9E9EA0" d="M47.1,418.4c-13.1,0-24.7,6.4-31.8,16.2c-7.3,7.2-11.9,17.1-11.9,28.2c0,21.7,17.6,39.4,39.4,39.4
			c13.1,0,24.7-6.4,31.8-16.2c7.3-7.2,11.9-17.1,11.9-28.2C86.5,436.1,68.8,418.4,47.1,418.4z"/>
		<path opacity="0.26" fill="#FFF" d="M7.7,457.8c0-8.7,2.8-16.6,7.5-23.1c-7.3,7.2-11.9,17.1-11.9,28.2
			c0,21.7,17.6,39.4,39.4,39.4c13.1,0,24.7-6.4,31.8-16.2c-7.1,6.9-16.8,11.2-27.5,11.2C25.4,497.2,7.7,479.5,7.7,457.8z"/>
	</g>
	<path fill="#817F82" d="M88.8,475.1l290.7-339.9l-80.3-65.1L20.2,421.1c-13.7,17.2-9.6,43.4,9.3,58.4c18,14.4,42.8,13.4,57-1.6l0,0
		l0,0c0.7-0.7,1.4-1.5,2-2.3C88.6,475.5,88.7,475.3,88.8,475.1z"/>
</g>
<g id="Lid">
	<path fill="#64BC41" d="M426.9,79c-10.8,2.8-31.4-5.6-50.9-21.5c-19.5-15.9-31.8-34.5-31.3-45.6c0.1-1.6,0.5-3.1,1.1-4.4l-3.1,3.8
		l-42.8,52.6c-0.4,1.1-0.7,2.3-0.8,3.7c-0.6,11.1,11.7,29.6,31.3,45.6c19.5,15.9,40.1,24.3,50.9,21.5c1.7-0.4,3.1-1.1,4.3-2.1
		l41.9-51.5l3-3.7C429.5,78.1,428.3,78.6,426.9,79z"/>
	<path fill="#64BC41" d="M403.1,24.3C379.4,5,354.2-3.2,346.7,6c-0.3,0.4-0.6,0.8-0.8,1.3c-0.7,1.3-1.1,2.9-1.2,4.6
		c-0.6,11.1,11.7,29.6,31.3,45.6c19.5,15.9,40.1,24.3,50.9,21.5c2.3-0.6,4.1-1.6,5.4-3.2c0.1-0.2,0.3-0.3,0.4-0.5
		C439.2,65.8,426.2,43.2,403.1,24.3z"/>
	<g>
		<path fill="#757376" d="M381.3,134.9c-10.8,2.8-31.4-5.6-50.9-21.5c-19.5-15.9-31.8-34.5-31.3-45.6c0.1-1.6,0.5-3.1,1.1-4.4
			l-3.1,3.8c-5,10.1,7.9,31.7,30.2,49.9c22,18,45.4,26.3,54.6,19.9l3-3.7C383.9,134,382.7,134.5,381.3,134.9z"/>
		<path fill="#9E9EA0" d="M373.7,139.6c-11.7,0-29.7-8.3-46.7-22.1c-22.5-18.4-35.5-40.1-30.3-50.5l0.1-0.1l6.6-7.2l-2.7,4
			c-0.6,1.2-1,2.6-1.1,4.2c-0.6,11.2,12.2,29.8,31.1,45.2c18.9,15.4,39.6,24.2,50.5,21.4l0,0c1.3-0.3,2.5-0.9,3.5-1.6l2.7-2.4
			l-5.1,7C380.1,138.9,377.2,139.6,373.7,139.6z M297.6,67.4c-4.8,9.9,8.4,31.5,30.1,49.2c21.6,17.7,44.8,26.2,53.9,19.9l1.4-1.7
			c-0.5,0.2-1,0.4-1.6,0.5l0,0c-11.1,2.9-32.3-6-51.4-21.6c-19.1-15.6-32-34.5-31.4-46c0-0.6,0.1-1.3,0.2-1.9L297.6,67.4z"/>
	</g>
	<path opacity="6.000000e-02" fill="#111" d="M403.1,24.3C379.4,5,354.2-3.2,346.7,6c-0.3,0.4-0.6,0.8-0.8,1.3
		c-0.7,1.3-1.1,2.9-1.2,4.6c-0.6,11.1,11.7,29.6,31.3,45.6c19.5,15.9,40.1,24.3,50.9,21.5c2.3-0.6,4.1-1.6,5.4-3.2
		c0.1-0.2,0.3-0.3,0.4-0.5C439.2,65.8,426.2,43.2,403.1,24.3z"/>
	<path opacity="0.25" fill="#111" d="M400.6,26.2C379.3,8.8,356.5,1.4,349.8,9.7c-0.2,0.3-0.4,0.6-0.6,0.9
		c8.3-5.7,29.4,1.9,49.2,18.1c20.6,16.8,32.2,36.8,27,45.7c0.6-0.4,1.2-0.9,1.7-1.5c0.1-0.2,0.2-0.3,0.3-0.5
		C433.3,63.8,421.5,43.4,400.6,26.2z"/>
	<path opacity="6.000000e-02" fill="#111" d="M342.7,11.3l-42.8,52.6c-0.4,1.1-0.7,2.3-0.8,3.7c-0.3,5.2,2.3,12.1,7.1,19.5
		l42.6-51.9C342.5,25.5,340,16.7,342.7,11.3z"/>
	<path opacity="0.25" fill="#FFF" d="M426.9,79c-19.6,5.3-61.9-25.6-74.9-47.4c-4.1-6.7-9.6-16.2-6.1-24.1l-3.1,3.8
		c-2.7,5.4-0.2,14.2,6.2,24c13.2,22.5,61.1,57.1,78.6,45.8l3-3.7C429.5,78.1,428.3,78.6,426.9,79z"/>
	<path opacity="6.000000e-02" fill="#111" d="M414,82.7l-43.7,51.5c4.2,0.9,7.9,1,10.9,0.2c1.3-0.3,2.5-0.9,3.5-1.6l2.7-2.4l0,0
		l40.1-49.3C424.4,83.2,419.7,83.7,414,82.7z"/>
</g>
<g id="Tint">
	<path opacity="0.25" fill="#231F20" d="M366.5,138.7L70.3,487.9c6.1-1.9,11.7-5.2,16.2-10l0,0c0.7-0.7,1.4-1.5,2-2.3
		c0.1-0.2,0.2-0.3,0.4-0.5l287-335.7c-0.7,0.1-1.4,0.1-2.1,0.1C371.5,139.6,369.1,139.3,366.5,138.7z"/>
	<path opacity="0.25" fill="#231F20" d="M293.9,81.4L25.7,420.9l13.3,2.4L300.3,93l0,0c-1.2-1.2-2.5-2.8-3.6-4.6
		C295.2,85.9,294.2,83.4,293.9,81.4z"/>
	<path opacity="8.000000e-02" fill="#FFF" d="M313.3,108.1l-243,332L349,135.3c-4.6-2.2-9.9-5.2-15.3-8.8
		C324.1,120,316.6,113.1,313.3,108.1z"/>
	<path opacity="0.12" fill="#FFF" d="M58.6,443.1c11.5,9.2,19.2,20.3,23.5,30.6c-2-11.3-10.2-24.3-22.6-34.2
		C46.3,429.1,32,424.8,22,427.3C32.3,427.8,46.2,433.3,58.6,443.1z"/>
</g>
<g id="Cotton_2" opacity="0.5">
	<g>
		<path fill="#FFF" d="M151.2,373.6c-3.3-9.1-11.4-15.2-21-17.1c-0.1-1.8-0.4-3.6-0.9-5.4c-3.7-13.4-15.9-21.8-27.4-18.7
			c-8.6,2.3-14.3,10.3-15.1,19.8c-0.3,0-0.5,0-0.8,0c-8.3,0-15,7.1-15,15.9c0,1.6,0.2,3.1,0.6,4.5c-6.3,2.6-10.6,8-10.6,14.3
			c0,8.8,8.4,15.9,18.8,15.9c0.4,0,0.9,0,1.3-0.1c-0.5,6.4,2.5,13.5,8.6,18.4c9.1,7.3,21.6,7.1,27.9-0.6c2-2.5,3.2-5.4,3.5-8.5
			c3.5-0.1,7-0.8,10.5-2C147.7,404.4,156.5,388,151.2,373.6z"/>
		<path opacity="0.3" fill="none" stroke="#000" stroke-miterlimit="10" d="M151.2,373.6c-3.3-9.1-11.4-15.2-21-17.1
			c-0.1-1.8-0.4-3.6-0.9-5.4c-3.7-13.4-15.9-21.8-27.4-18.7c-8.6,2.3-14.3,10.3-15.1,19.8c-0.3,0-0.5,0-0.8,0c-8.3,0-15,7.1-15,15.9
			c0,1.6,0.2,3.1,0.6,4.5c-6.3,2.6-10.6,8-10.6,14.3c0,8.8,8.4,15.9,18.8,15.9c0.4,0,0.9,0,1.3-0.1c-0.5,6.4,2.5,13.5,8.6,18.4
			c9.1,7.3,21.6,7.1,27.9-0.6c2-2.5,3.2-5.4,3.5-8.5c3.5-0.1,7-0.8,10.5-2C147.7,404.4,156.5,388,151.2,373.6z"/>
	</g>
	<g opacity="0.3">
		<path d="M101.6,375.1c-3.8,0-7.3-1.5-10.7-2.9c-1.7-0.7-3.5-1.5-5.4-2.1l0.3-1c1.9,0.6,3.7,1.4,5.5,2.1c7.8,3.3,15.1,6.4,26.3-6.9
			l0.8,0.6C111.9,372.8,106.5,375.1,101.6,375.1z"/>
	</g>
	<g opacity="0.3">
		<path d="M95.3,396.7c-1.5-3.9-3.9-6.4-6.9-7.7c-5.6-2.2-11.8,0.7-11.9,0.8l-0.4-0.9c0.3-0.1,6.7-3.1,12.7-0.8
			c3.4,1.3,5.9,4.1,7.5,8.2L95.3,396.7z"/>
	</g>
	<g opacity="0.3">
		<path d="M139.2,388.3c-1.1,0-7-0.2-10.8-4.6c-2.8-3.3-3.8-8-2.7-14.1l1,0.2c-1,5.8-0.1,10.3,2.5,13.3c3.8,4.3,10.1,4.2,10.1,4.2
			l0,1C139.4,388.3,139.3,388.3,139.2,388.3z"/>
	</g>
	<g opacity="0.3">
		<path d="M113.9,354c-0.1-4.4-1.3-7.4-3.7-9.2c-3.4-2.6-8.2-1.3-8.2-1.3l-0.3-1c0.2-0.1,5.2-1.4,9.1,1.4c2.6,1.9,4,5.3,4.1,9.9
			L113.9,354z"/>
	</g>
	<g opacity="0.3">
		<path d="M106.9,414.7c-2.9,0-5.5-0.7-7.1-1.2c-0.6-0.2-1.1-0.3-1.4-0.3l0.2-1c0.4,0.1,0.9,0.2,1.5,0.4c4.3,1.2,14.4,4,19.8-8.2
			l0.9,0.4C117.2,412.8,111.7,414.7,106.9,414.7z"/>
	</g>
</g>
<g id="Cotton_1" opacity="0.5">
	<g>
		<path fill="#FFF" d="M332.5,153.7c-0.8-0.6-1.6-1.1-2.6-1.5c-3-8.2-11-17.6-22.3-25c-18.1-11.9-37.7-14.3-43.8-5.4
			c-1.2,1.7-1.8,3.8-1.8,6.1c-2.2,1.1-4.4,2.5-6.5,4.1c-10.9,8.4-15.6,20.3-10.6,26.6c0.9,1.1,2.1,2,3.5,2.6c1,2.3,2.4,4.6,4.2,6.7
			c3.5,4,8,6.5,12.4,7.4c1.8,10.2,10.6,18.1,21.4,18.5c0,4,1.2,7.3,3.7,9.4c7.2,6,22.6-0.3,34.3-13.9
			C336.1,175.6,339.7,159.6,332.5,153.7z"/>
		<path opacity="0.3" fill="none" stroke="#000" stroke-miterlimit="10" d="M332.5,153.7c-0.8-0.6-1.6-1.1-2.6-1.5
			c-3-8.2-11-17.6-22.3-25c-18.1-11.9-37.7-14.3-43.8-5.4c-1.2,1.7-1.8,3.8-1.8,6.1c-2.2,1.1-4.4,2.5-6.5,4.1
			c-10.9,8.4-15.6,20.3-10.6,26.6c0.9,1.1,2.1,2,3.5,2.6c1,2.3,2.4,4.6,4.2,6.7c3.5,4,8,6.5,12.4,7.4c1.8,10.2,10.6,18.1,21.4,18.5
			c0,4,1.2,7.3,3.7,9.4c7.2,6,22.6-0.3,34.3-13.9C336.1,175.6,339.7,159.6,332.5,153.7z"/>
	</g>
	<g opacity="0.3">
		<path fill="#111" d="M309.7,146.1c-1-14.5-20-14.7-20.2-14.7v-1c0.2,0,20.1,0.2,21.2,15.6L309.7,146.1z"/>
	</g>
	<g opacity="0.3">
		<path fill="#111" d="M264.3,139.8l-0.9-0.3c0.1-0.2,2.1-5.9,6.4-7.1c2.4-0.7,5,0.2,7.8,2.5l-0.6,0.8c-2.5-2.1-4.8-2.9-6.9-2.3
			C266.2,134.4,264.3,139.7,264.3,139.8z"/>
	</g>
	<g opacity="0.3">
		<path fill="#111" d="M284,170.4c-3.9-12.5-19.9-9.1-20.1-9l-0.2-1c0.2,0,17-3.7,21.2,9.7L284,170.4z"/>
	</g>
	<g opacity="0.3">
		<path fill="#111" d="M289.9,160.7l-0.8-0.7c3.5-4.1,5-7.6,4.2-10.1c-0.8-2.6-3.9-3.4-3.9-3.4l0.2-1c0.1,0,3.6,0.9,4.6,4.1
			C295.2,152.5,293.7,156.2,289.9,160.7z"/>
	</g>
	<g opacity="0.3">
		<path fill="#111" d="M298,174.6l-0.8-0.6c0.3-0.4,8.3-10.4,17.4-10.4c0,0,0,0,0.1,0c4.2,0,8,2.1,11.2,6.3l-0.8,0.6
			c-3-3.9-6.5-5.9-10.4-5.9c0,0,0,0-0.1,0C306,164.6,298.1,174.5,298,174.6z"/>
	</g>
	<g opacity="0.3">
		<path fill="#111" d="M309.8,195.7c-8.9-14.6-24.9-8.9-25.1-8.9l-0.3-0.9c0.2-0.1,16.9-6,26.3,9.3L309.8,195.7z"/>
	</g>
</g>
<g id="Label">
	<path fill="#64BC41" d="M306.8,207.4L243,159.2L106.8,329.4c1.6,1.2,66.4,50.2,65.1,49.2l141.6-166.1L306.8,207.4z"/>
	<path fill="#EEE" d="M309.8,203.8l-67.6-51.2L100.1,330.3c2.8,2.2,67.9,51.4,68.8,52c0.8-0.9,2.3-2.7,3.1-3.6
		c-0.9-0.7-62-46.9-65.1-49.2L243,159.2c3.1,2.4,69.9,52.8,70.5,53.4c0.8-0.9,2.3-2.7,3.1-3.6L309.8,203.8z"/>
	<path fill="#FFF" fill-opacity="0.5" d="M306.8,207.4L243,159.2L106.8,329.4c1.6,1.2,66.4,50.2,65.1,49.2l141.6-166.1
		L306.8,207.4z"/>
</g>
<g id="Label_text">
	<g>
		<path fill="#111" d="M143.6,333.6l-2.6-1.1l-2.3,2.8l1.6,2.4l-2.1,2.6l-8.3-12l2.7-3.4l13.5,5.5L143.6,333.6z M130.6,325.8
			c-1.6,2-4.8-0.6-3.2-2.6C129,321.2,132.2,323.8,130.6,325.8z M136.8,332.8l1.4-1.7l-3.8-1.7L136.8,332.8z M129.6,325
			c0.6-0.7-0.6-1.7-1.2-1C127.8,324.8,129,325.8,129.6,325z"/>
		<path fill="#111" d="M154.9,319.6l-2.1,2.6c-2.4-0.4-7.9-1-10.3-1.7c1.7,0.6,5.8,4.4,7.3,5.4l-2.1,2.6l-10.9-8.8l2.4-3
			c2,0.3,7.2,0.8,8.9,1.4c-1.9-1-4.5-3.3-6.3-4.7l2.1-2.6L154.9,319.6z"/>
		<path fill="#111" d="M152.2,306l8.3,6.7l-2.5,3l-8.3-6.7l-1.7,2.2l-2.6-2.1l6-7.4l2.6,2.1L152.2,306z"/>
		<path fill="#111" d="M167.4,304.4c-5.1,6.8-16.9-2.6-11.2-9.1C161.3,288.5,172.9,298.1,167.4,304.4z M154,296
			c-1,1.3-3.2-0.4-2.1-1.7C153,293,155.1,294.7,154,296z M164.9,302.5c1.9-2.1-4.9-7.2-6.2-5.1C156.6,299,163.6,304.9,164.9,302.5z
			 M156.3,293.3c-1.1,1.3-3.2-0.4-2.1-1.7C155.2,290.2,157.3,292,156.3,293.3z"/>
		<path fill="#111" d="M180.5,287.9l-2.9,3.6l-5.4-1.8l-0.8,1l4.2,3.4l-2.6,3.2l-10.9-8.8c1.7-1.7,5-7.4,7.6-7.6
			c2.7-0.4,5.5,2.2,4.6,5.1L180.5,287.9z M169.1,288.7c3.5-3.2,0.4-5.8-2.1-1.7L169.1,288.7z"/>
	</g>
	
		<rect x="133.8" y="306.5" transform="matrix(0.6273 -0.7788 0.7788 0.6273 -178.8331 256.7582)" fill="#111" width="90" height="17.4"/>
	<g>
		<path fill="#FFF" d="M159.1,344.3l1.4-1.8l1.7,1.4l-4.6,5.7l-1.7-1.4l1.5-1.8l-3.7-3c-0.2,1-0.5,1.6-0.7,2.1l-1.7-1.4
			c0.6-1.2,0.8-2.3,0.5-3.2l1.3-1.6L159.1,344.3z"/>
		<path fill="#FFF" d="M165.4,340.2c-3.2,3.9-11.2-2.5-7.9-6.4C160.7,329.8,168.7,336.3,165.4,340.2z M163.8,338.9
			c0.6-1.5-3.6-4.7-4.7-3.8C158.4,336.4,162.8,339.9,163.8,338.9z"/>
		<path fill="#FFF" d="M171.9,328.5l-0.8,1l1.7,1.4l-1.6,2l-1.7-1.4l-2.4,3l-1.7-1.4l-2.2-6.4l1.8-2.3l4.5,3.6l0.8-1L171.9,328.5
			z M167.7,330.2l-2.3-1.9l1.2,3.3L167.7,330.2z"/>
		<path fill="#FFF" d="M174.1,325l2.1,1.7l-1.7,2.1l-2.1-1.7L174.1,325z"/>
		<path fill="#FFF" d="M175.8,315.2l-2.5,3.1l1,1c0.2-4,6.3-3.4,6.4,0.4c0.2,2.8-3.2,5.5-5.8,3.9l1.3-2.1c1.3,0.8,2.7-1.1,1.5-2
			c-1-0.9-2.4,0.3-1.9,1.4l-1.6,1.5l-4.2-3.9l4-5L175.8,315.2z"/>
		<path fill="#FFF" d="M185.7,310.9l1.8,1.6l-4.6,5.7l-1.8-1.4c1.3-9.3-4.2-6.9-1.5-4.3l-1.9,1.6c-4.9-6.9,7.7-10,5.5-0.2
			L185.7,310.9z"/>
		<path fill="#FFF" d="M191.4,303.8l1.8,1.6l-4.6,5.7l-1.8-1.4c1.3-9.3-4.2-6.9-1.5-4.3l-1.9,1.6c-4.9-6.9,7.7-10,5.5-0.2
			L191.4,303.8z"/>
		<path fill="#FFF" d="M194.1,300.1l2.1,1.7l-1.7,2.1l-2.1-1.7L194.1,300.1z"/>
		<path fill="#FFF" d="M195.5,298.6l1.2-2.2c2.2,0.8,1.6-2,0.1-2.6c0.4,6.2-9.3,1.9-5.1-2.6C197.8,284.9,205.6,301,195.5,298.6z
			 M195.2,294c0.9-1.1-1-2.6-1.9-1.5C192.5,293.5,194.4,295.1,195.2,294z"/>
		<path fill="#FFF" d="M201.2,291.5l1.2-2.2c2.2,0.8,1.6-2,0.1-2.6c0.4,6.2-9.3,1.9-5.1-2.6C203.5,277.8,211.3,293.9,201.2,291.5
			z M200.9,287c0.9-1.1-1-2.6-1.9-1.5C198.2,286.4,200.1,288,200.9,287z"/>
	</g>
	
		<rect x="202.6" y="243.1" transform="matrix(0.6273 -0.7788 0.7788 0.6273 -130.2278 256.9166)" fill="#111" width="1.4" height="42.9"/>
	<g>
		<path fill="#111" d="M172.5,365.3l1.5,1.2l-1,1.2l-4.1-3.3c0.5-0.6,1.6-2.2,2.3-2.5C173.5,361.1,174.2,364.1,172.5,365.3z
			 M171.6,364.6c1.2-1.1,0-2.1-0.8-0.6L171.6,364.6z"/>
		<path fill="#111" d="M177.1,360.8l0.7-0.9l0.9,0.7l-2.4,3l-0.9-0.7l0.8-1l-1.9-1.6c-0.1,0.5-0.3,0.9-0.4,1.1l-0.9-0.7
			c0.3-0.7,0.4-1.2,0.2-1.7l0.7-0.9L177.1,360.8z"/>
		<path fill="#111" d="M180.5,358.6c-1.7,2.1-5.9-1.3-4.2-3.4C177.9,353.1,182.2,356.5,180.5,358.6z M179.6,357.9
			c0.3-0.8-1.9-2.5-2.5-2C176.8,356.7,179,358.4,179.6,357.9z"/>
		<path fill="#111" d="M181.4,351l-1.3,1.6l0.5,0.5c0.1-2.1,3.4-1.8,3.4,0.2c0.1,1.5-1.7,2.9-3,2l0.7-1.1
			c2.4,0.4-0.2-2.8-0.2-0.3l-0.9,0.8l-2.2-2.1l2.1-2.6L181.4,351z"/>
		<path fill="#111" d="M186.5,351.1c-1.7,2.1-5.9-1.3-4.2-3.4C184,345.6,188.2,349,186.5,351.1z M185.6,350.4
			c0.3-0.8-1.9-2.5-2.5-2C182.9,349.1,185,350.9,185.6,350.4z"/>
		<path fill="#111" d="M186.4,342.7l0.8,0.6c0.3,1.3,1.3,2.9,2.5,3.7l-1,1.3c-1-0.8-1.9-2.4-2.1-3.7l-1.5,1.8l-1-0.9L186.4,342.7
			z"/>
		<path fill="#111" d="M190.2,342.2l0.9,0.8l-1.2,1.5l-0.9-0.8L190.2,342.2z"/>
		<path fill="#111" d="M194.1,339.4l1,0.8l-2.4,3l-0.9-0.8c0.8-4.7-2.2-3.9-0.8-2.3l-1,0.8c-2.6-3.7,4.2-5.2,2.9-0.1L194.1,339.4
			z"/>
		<path fill="#111" d="M197.1,335.7l1,0.9l-2.4,3l-0.9-0.8c0.8-4.7-2.2-3.9-0.8-2.3l-1,0.8c-2.6-3.7,4.2-5.2,2.9-0.1L197.1,335.7
			z"/>
		<path fill="#111" d="M197,329.6l0.8,0.6c0.3,1.3,1.3,2.9,2.5,3.7l-1,1.3c-1-0.8-1.9-2.4-2.1-3.7l-1.5,1.8l-1-0.9L197,329.6z"/>
		<path fill="#111" d="M203.1,328.3l1,0.9l-2.4,3l-0.9-0.8c0.8-4.7-2.2-3.9-0.8-2.3l-1,0.8c-2.6-3.7,4.2-5.2,2.9-0.1L203.1,328.3
			z"/>
	</g>
	
		<rect x="204.2" y="237.2" transform="matrix(0.6273 -0.7788 0.7788 0.6273 -119.7913 253.3184)" fill="#111" width="1.1" height="29.2"/>
	
		<rect x="205.6" y="235.5" transform="matrix(0.6273 -0.7788 0.7788 0.6273 -117.8892 253.7672)" fill="#111" width="1.1" height="29.2"/>
	
		<rect x="206.8" y="233.6" transform="matrix(0.6273 -0.7788 0.7788 0.6273 -115.8385 254.251)" fill="#111" width="1.8" height="29.2"/>
	
		<rect x="209.2" y="230" transform="matrix(0.6273 -0.7788 0.7788 0.6273 -111.9898 255.159)" fill="#111" width="2.8" height="29.2"/>
	
		<rect x="214.5" y="223.4" transform="matrix(0.6273 -0.7788 0.7788 0.6273 -104.872 256.8384)" fill="#111" width="2.8" height="29.2"/>
	
		<rect x="216.8" y="220.5" transform="matrix(0.6273 -0.7788 0.7788 0.6273 -101.7811 257.5677)" fill="#111" width="2.8" height="29.2"/>
	
		<rect x="213" y="225.9" transform="matrix(0.6273 -0.7788 0.7788 0.6273 -107.5468 256.2073)" fill="#111" width="1.8" height="29.2"/>
	
		<rect x="219.2" y="218.5" transform="matrix(0.6273 -0.7788 0.7788 0.6273 -99.6413 258.0725)" fill="#111" width="1.1" height="29.2"/>
	
		<rect x="220.3" y="217.2" transform="matrix(0.6273 -0.7788 0.7788 0.6273 -98.1553 258.4231)" fill="#111" width="1.1" height="29.2"/>
	
		<rect x="222.1" y="215" transform="matrix(0.6273 -0.7788 0.7788 0.6273 -95.7778 258.9841)" fill="#111" width="1.1" height="29.2"/>
	
		<rect x="223.3" y="213.1" transform="matrix(0.6273 -0.7788 0.7788 0.6273 -93.7568 259.4609)" fill="#111" width="1.8" height="29.2"/>
	
		<rect x="225.7" y="210.5" transform="matrix(0.6273 -0.7788 0.7788 0.6273 -90.9632 260.12)" fill="#111" width="1.1" height="29.2"/>
	
		<rect x="226.4" y="208.6" transform="matrix(0.6273 -0.7788 0.7788 0.6273 -88.9422 260.5968)" fill="#111" width="2.8" height="29.2"/>
	
		<rect x="229.8" y="205" transform="matrix(0.6273 -0.7788 0.7788 0.6273 -85.0192 261.5224)" fill="#111" width="1.8" height="29.2"/>
	
		<rect x="231.4" y="203" transform="matrix(0.6273 -0.7788 0.7788 0.6273 -82.8794 262.0273)" fill="#111" width="1.8" height="29.2"/>
	
		<rect x="233.8" y="200.4" transform="matrix(0.6273 -0.7788 0.7788 0.6273 -80.0858 262.6864)" fill="#111" width="1.1" height="29.2"/>
	
		<rect x="234.9" y="199.1" transform="matrix(0.6273 -0.7788 0.7788 0.6273 -78.6592 263.0229)" fill="#111" width="1.1" height="29.2"/>
	
		<rect x="236" y="197.8" transform="matrix(0.6273 -0.7788 0.7788 0.6273 -77.2327 263.3595)" fill="#111" width="1.1" height="29.2"/>
	
		<rect x="237.8" y="194.5" transform="matrix(0.6273 -0.7788 0.7788 0.6273 -73.6812 264.1974)" fill="#111" width="2.8" height="29.2"/>
	
		<rect x="240.2" y="192.2" transform="matrix(0.6273 -0.7788 0.7788 0.6273 -71.1699 264.79)" fill="#111" width="1.8" height="29.2"/>
	
		<rect x="241.8" y="190.5" transform="matrix(0.6273 -0.7788 0.7788 0.6273 -69.357 265.2177)" fill="#111" width="1.1" height="29.2"/>
	
		<rect x="243.8" y="188.1" transform="matrix(0.6273 -0.7788 0.7788 0.6273 -66.7714 265.8278)" fill="#111" width="1.1" height="29.2"/>
	
		<rect x="244.9" y="186.3" transform="matrix(0.6273 -0.7788 0.7788 0.6273 -64.8099 266.2905)" fill="#111" width="1.8" height="29.2"/>
	
		<rect x="246.6" y="184.2" transform="matrix(0.6273 -0.7788 0.7788 0.6273 -62.5809 266.8164)" fill="#111" width="1.8" height="29.2"/>
	
		<rect x="248.2" y="182.1" transform="matrix(0.6273 -0.7788 0.7788 0.6273 -60.3519 267.3423)" fill="#111" width="1.8" height="29.2"/>
	
		<rect x="249.7" y="179.7" transform="matrix(0.6273 -0.7788 0.7788 0.6273 -57.692 267.9699)" fill="#111" width="2.8" height="29.2"/>
	
		<rect x="253.4" y="176.2" transform="matrix(0.6273 -0.7788 0.7788 0.6273 -53.9325 268.8569)" fill="#111" width="1.1" height="29.2"/>
	
		<rect x="254.4" y="174.9" transform="matrix(0.6273 -0.7788 0.7788 0.6273 -52.5654 269.1795)" fill="#111" width="1.1" height="29.2"/>
	
		<rect x="255.5" y="173.1" transform="matrix(0.6273 -0.7788 0.7788 0.6273 -50.6039 269.6422)" fill="#111" width="1.8" height="29.2"/>
	
		<rect x="257.3" y="171.3" transform="matrix(0.6273 -0.7788 0.7788 0.6273 -48.6424 270.105)" fill="#111" width="1.1" height="29.2"/>
	<g>
		<path fill="#111" d="M276.4,235.2l-17,21.1l9.3,7.4C262.8,259,267,246.8,276.4,235.2z"/>
		<path fill="#111" d="M276.4,235.2c9.4-11.7,21.6-17.4,27.5-12.7l-10.5-8.4L276.4,235.2z"/>
	</g>
</g>
</svg>
