<svg xmlns="http://www.w3.org/2000/svg" viewBox="0 0 296.5 186.3" xmlns:v="https://vecta.io/nano"><path fill="#64bc41" d="M289.3 167c-1-2.8-2.6-5.8-2.6-8.6l-.1-107.7c0-13.5-7-23.6-19.6-28.2-14.7-5.4-33.1 4.5-35.7 19.3l-.8 9.2h0 0l-15.9-17c-2-2.2-4-3.5-7.3-3.2l-48.1 3.4c-1.3.1-3.2-.1-3.8-.9-1.8-2.6.2-7.5 3.5-9.1-1.9-1.7-3.8-3.3-5.7-4.9-4.7-4.3-11.4-7.3-9.8-15.7.2-.9-2.2-2.4-3.4-3.5-.9 1.3-2.7 2.6-2.5 3.8 1 7.3-4.3 10.5-8.9 14.1l-5.8 4.8c-1.1.9-1.6 1.1-.4 3 1.5 2.7 1.2 6.7.8 9.9-.1.9-3.6 1.7-5.6 1.8-7.9.7-15.9 1-23.9 1.6-4.9.4-9.4.7-13.5 4.7C69.5 54.2 58 64.1 46.9 74.4c-1.4 1.3-2.6 3.4-3 5.4l-9.7 42.5c-.6 2.7-.1 4.2 3.1 3.5 3.8-.8 5.2.9 4.6 4.6a16.95 16.95 0 0 0 0 4.5c.3 2.7-.7 4-3.4 4.3-7.8 1.1-11.5 6.3-13.5 13.4-.4 1.5-1.5 3.3-2.8 3.9-12.6 6.1-20 16-22.2 29.8h47.9 107.8 27 9 34.9 7 17 14 31.9l-7.2-19.3zM236.1 47h0-.1.1z"/><path opacity=".2" d="M264.6 186.3h31.9l-7.3-19.3c-1-2.8-2.6-5.8-2.6-8.6l-.1-107.7c0-13.5-7-23.6-19.6-28.2-14.7-5.4-33.1 4.5-35.7 19.3l4.6 5.2h.1c1.9-7.3 5-13 11.4-16.5 10.9-6 22.2.6 22 13.1 0 .8-1.6 2.2-2.5 2.3-3.3.3-6.7-.3-9.9.2-1.7.3-3.2 2.1-4.8 3.2 1.5 1.2 2.9 3.2 4.5 3.4 8.3 1 8.3.8 8.3 9.1v118.1c.1 2.2-.1 4.3-.3 6.4zm-5.4-70.9c-2.4-11.5-5.2-23-7.2-34.7-1.3-7.5-4.6-13.7-9.8-19.2-3.1-3.2-6.4-6.3-9.2-9.8-.6-.7-1.3-1.7-2.4-.8l-15.9-17c-2-2.2-4-3.5-7.3-3.2l-48.1 3.4c-1.3.1-3.2-.1-3.8-.9-1.8-2.6.2-7.5 3.5-9.1-1.9-1.7-3.8-3.3-5.7-4.9-4.7-4.3-11.4-7.3-9.8-15.7.2-.9-2.2-2.4-3.4-3.5-.9 1.3-2.7 2.6-2.5 3.8 1 7.3-4.3 10.5-8.9 14.1l-5.8 4.8c-1.1.9-1.6 1.1-.4 3 1.5 2.7 1.2 6.7.8 9.9-.1.9-3.6 1.7-5.6 1.8-7.9.7-15.9 1-23.9 1.6-4.9.4-9.4.7-13.5 4.7C69.5 54.2 58 64.1 46.9 74.4c-1.4 1.3-2.6 3.4-3 5.4l-9.7 42.5c-.6 2.7-.1 4.2 3.1 3.5 3.8-.8 5.2.9 4.6 4.6a16.95 16.95 0 0 0 0 4.5c.3 2.7-.7 4-3.4 4.3-7.8 1.1-11.5 6.3-13.5 13.4-.4 1.5-1.5 3.3-2.8 3.9-12.6 6.1-20 16-22.2 29.8h47.9l.2-46.8c0-3.6.8-4.8 4.6-4.9l98.7-2.8c3.6-.1 4.1 1.2 4.1 4.2l.2 50.3h27l.1-53.7c0-4.1.9-5.4 5.2-5.1 13.6 1 27.2 1.6 40.8 2.1 3.8.1 4.6 1.5 4.6 5l-.1 48.3c0 1.1.2 2.3.3 3.4h17c1.5-1.6 1.5-3.6 1.6-5.6v-10-40.4c0-2.2-.6-5.2 2.4-5.9 5.7-1.1 5.5-4.7 4.6-9zM134.3 24c3.9-.1 2.4 2.6 2.7 4.4.2 1.3 0 2.6 0 3.9 0 1.6-.2 3.3 0 4.9.3 3-1.3 3.4-3.8 3.6-2.8.2-3.4-.8-3.3-3.3.2-3 .3-5.9 0-8.9-.3-3.3 1-4.6 4.4-4.6zm53.4 26.6c-4.9 4.2-9.4 9-14.7 12.6-7.1 4.8-9.9 11.4-11.1 19.5-1.6 10-4.1 19.8-6 29.8-.5 2.8-1.7 3.7-4.6 3.8l-105.2 2.9c-3.5.1-4.2-.7-3.4-4.2A698.37 698.37 0 0 0 49 86.3c.6-2.8 1.9-3.3 4.4-3.4l79.7-4c.5 0 1-.1 1.5 0 2.8 0 5.5-.7 5-3.9-.2-1.3-3.4-2.9-5.2-2.9-7.8 0-15.6.7-23.4 1.1L55.4 76c1.2-1.5 1.8-2.3 2.6-3l27-24.4c1.4-1.2 3.3-2.4 5.1-2.5 9.8-.9 19.6-1.6 29.3-2.2 1.1-.1 3.3.6 3.3.8-.1 5.8 4 3.4 6.7 3.4 3.3 0 6.7-.1 9.9-.8 2.8-.6 5.3-2.1 8-3.2 2.1-.9 4-2.6 6.1-2.8l46.3-3.5c.4 0 .8.2 2.1.6l-14.1 12.2zm30.5 45c0 13.2 0 13.3-13.2 11.2-1.1-.2-2.6-1.9-2.7-2.9-.3-6.5-.1-12.9-.2-19.4 0-2.5.8-2.9 3.2-2.8 12.9.8 12.9.8 12.9 13.9zm30.2 20.6c-1.4-.5-3.5-1.3-3.8-2.4-1.7-6.6-3.6-13.2-4.4-19.9-1.3-10.8-5.7-19.6-13.5-27.3-6.5-6.4-12-13.7-18-20.5-1.3-1.5-2.5-2.4-.3-4.3 2-1.8 3.1-1.5 4.7.4l27.2 30.4c.8 1 1.7 2.2 1.9 3.4l7.9 37.5c.1.3.1.6.4 1.7-.5.1-1.5 1.2-2.1 1zM97.8 160.7c0 10.3-.5 10.8-10.8 9.4-.9-.1-2.3-1.7-2.4-2.6a107.45 107.45 0 0 1 0-13.9c.1-1 1.7-2.7 2.8-2.8 10.4-1.3 10.4-1.2 10.4 9.9zm-21.7-.1v.5c0 10.2 0 10.3-10.3 9.2-1-.1-2.6-1.8-2.7-2.8-.3-4.3 0-8.6-.2-12.9-.1-2.5.8-3.4 3.4-3.5 9.8-.6 9.8-.7 9.8 9.5zm115.7 25.7c.1-.8 0-1.7.4-2.3l15.7-19.2c.5-.6 2.5-.8 2.8-.4l16.6 20.4c.2.2-.4.9-.6 1.4l-34.9.1zm-3.8-4.8v-45l17.4 21.5c.4.5.2 1.9-.3 2.5l-17.1 21zm3.1-48.9l35.4 1.8-15.8 19.3c-.3.4-2.2.2-2.7-.3l-16.9-20.8zm37.3 7.1v38.8l-14.8-18.4c-.4-.5 0-2.2.5-2.9l14.3-17.5z" fill="#666"/></svg>