<svg xmlns="http://www.w3.org/2000/svg" viewBox="0 0 35.2 47.6" xmlns:v="https://vecta.io/nano"><path fill="#64bc41" d="M35.1 18.7c-.2-.3-.4-.6-.7-.9-.3-.4-.6-.5-1.1-.4-.1 0-.2.1-.3.1l-1.5.3c-.2 0-.3.1-.5 0-.1 0-.2-.1-.3-.1l-6.1-.3-3.1-.2s-.1-.1-.2-.1l-.6-1.2h0c.6-.5 1.2-1 1.4-1.7.2-.6.4-1.2.4-1.8v-.2-.3-1.4h.6c.3 0 .7-.1 1-.2.4-.2.8-.4 1.1-.7.2-.2.4-.5.5-.8.2-.9 0-1.6-.4-2.4-.3-.5-.7-.9-1-1.4 0-.3-.1-.6-.3-.9-.2-.4-.3-.7-.4-1.2v-.3c.1-.4.2-.8.2-1.2 0-.6-.2-1.2-1-1.3-.1 0-.3-.1-.4-.1h-.6-.1c-.4.2-.7.4-.8.9-.2.7-.3 1.4-.3 2.1s.2 1.3.4 1.9c.3.7.7 1.5 1.2 2.2.1.1.2.2.2.4h-.5c-.1 0-.2 0-.3-.2-.2-.3-.4-.5-.7-.7-.4-.3-.9-.6-1.4-.7-.6-.2-1.2-.3-1.8-.4-.4 0-.7.1-1.1.2-.3 0-.6.2-.9.3-.8.3-1.5.8-2 1.5l-.1.1h-.7c.1-.2.2-.2.2-.4.4-.6.8-1.2 1.1-2 .3-.7.4-1.5.5-2.2 0-.3 0-.6-.1-.9 0-.5-.1-1-.3-1.5-.1-.3-.3-.5-.7-.5h-.2-.5l-.8.3c-.3.1-.4.3-.5.6-.1.4-.1.8 0 1.2.2.5.1 1 0 1.5-.2.5-.4.9-.7 1.3L9.8 6.5c-.2.3-.3.6-.4.9-.2.6-.1 1.3.2 1.9.2.3.5.6.8.7.6.3 1.1.5 1.8.5.1 0 .2 0 .4.1-.2.5-.1 1-.1 1.4s.1.9.2 1.3c.1.5.2.9.4 1.3.3.6.8 1 1.3 1.3-.2.4-.4.9-.7 1.3l-3.5.2-5.7.3h-.3c-.2.2-.4.1-.6 0h-.1c-.5 0-1-.1-1.5-.3s-.9-.1-1.2.3c-.2.3-.4.5-.6.8-.3.4-.2.9.2 1.3.3.3.7.5 1.2.6l1.4.3h.5.4v.8c0 .3.1.5.3.7.9.7 1.9 1.1 3 1.4 1 .2 2 .3 3 .4.1 0 .2 0 .2.1a2.73 2.73 0 0 0 1.2.9c.2.1.5.2.7.2v.1c0 .8-.1 1.7-.2 2.5l-.3 5.3c0 .4 0 .8.5.9v.8c0 .2-.1.3-.2.4-.3.4-.5.8-.7 1.3l-.9 2.8c-.1.4-.3.8-.5 1.2-.1.4-.3.7-.4 1.1-.2.4-.3.8-.5 1.2-.3.6-.6 1.3-1 1.9-.1.2-.3.5-.5.6-.1.1-.2.3-.3.4-.1.3-.1.6-.1.9 0 .5.2.9.8 1h.1.5.1c.3 0 .5-.1.7-.3.4-.4.9-.9 1.2-1.4.2-.3.3-.5.4-.8.3-.5.5-1 .7-1.5 0 .4 0 .9-.1 1.4v.2c.1.5.3.7.8.7h10 .2c.2 0 .3-.1.4-.2s.2-.3.2-.5c.1-.5 0-.9 0-1.4a.76.76 0 0 0 .2.4c.2.5.5 1 .7 1.4a6.42 6.42 0 0 0 1 1.3c.3.3.5.7 1 .7h0 .6.2c.4-.1.7-.5.7-.9v-1c0-.3-.1-.5-.4-.7l-.3-.3c-.3-.4-.5-.9-.8-1.3-.3-.6-.6-1.2-.8-1.9-.2-.4-.3-.7-.4-1.1l-.5-1.4-.7-2.2c-.2-.6-.3-1.2-.7-1.7-.1-.1-.2-.2-.2-.4v-1c.3-.2.5-.4.4-.7l-.3-4.5-.3-5h1.3.1.5c1.1 0 2.2-.1 3.2-.4a7.14 7.14 0 0 0 3.2-1.4c.2-.2.3-.3.3-.6v-.8c.1 0 .2-.1.3 0 .5.1.9-.1 1.3-.1.3 0 .6-.2.8-.2.4-.1.7-.3 1-.6.7.1.7-.3.5-.7z"/><path opacity=".2" fill="#666" d="M35.1 18.7c-.2-.3-.4-.6-.7-.9-.3-.4-.6-.5-1.1-.4-.1 0-.2.1-.3.1l-1.5.3c-.2 0-.3.1-.5 0-.1 0-.2-.1-.3-.1l-6.1-.3-3.1-.2s-.1-.1-.2-.1l-.6-1.2h0c.6-.5 1.2-1 1.4-1.7.2-.6.4-1.2.4-1.8v-.2-.3-1.4h.6c.3 0 .7-.1 1-.2.4-.2.8-.4 1.1-.7.2-.2.4-.5.5-.8.2-.9 0-1.6-.4-2.4-.3-.5-.7-.9-1-1.4 0-.3-.1-.6-.3-.9-.2-.4-.3-.7-.4-1.2v-.3c.1-.4.2-.8.2-1.2 0-.6-.2-1.2-1-1.3-.1 0-.3-.1-.4-.1h-.6-.1c-.4.2-.7.4-.8.9-.2.7-.3 1.4-.3 2.1s.2 1.3.4 1.9c.3.7.7 1.5 1.2 2.2.1.1.2.2.2.4h-.5c-.1 0-.2 0-.3-.2-.2-.3-.4-.5-.7-.7-.4-.3-.9-.6-1.4-.7-.6-.2-1.2-.3-1.8-.4-.4 0-.7.1-1.1.2-.3 0-.6.2-.9.3-.8.3-1.5.8-2 1.5l-.1.1h-.7c.1-.2.2-.2.2-.4.4-.6.8-1.2 1.1-2 .3-.7.4-1.5.5-2.2 0-.3 0-.6-.1-.9 0-.5-.1-1-.3-1.5-.1-.3-.3-.5-.7-.5h-.2-.5l-.8.3c-.3.1-.4.3-.5.6-.1.4-.1.8 0 1.2.2.5.1 1 0 1.5-.2.5-.4.9-.7 1.3L9.8 6.5c-.2.3-.3.6-.4.9-.2.6-.1 1.3.2 1.9.2.3.5.6.8.7.6.3 1.1.5 1.8.5.1 0 .2 0 .4.1-.2.5-.1 1-.1 1.4s.1.9.2 1.3c.1.5.2.9.4 1.3.3.6.8 1 1.3 1.3-.2.4-.4.9-.7 1.3l-3.5.2-5.7.3h-.3c-.2.2-.4.1-.6 0h-.1c-.5 0-1-.1-1.5-.3s-.9-.1-1.2.3c-.2.3-.4.5-.6.8-.3.4-.2.9.2 1.3.3.3.7.5 1.2.6l1.4.3h.5.4v.8c0 .3.1.5.3.7.9.7 1.9 1.1 3 1.4 1 .2 2 .3 3 .4.1 0 .2 0 .2.1a2.73 2.73 0 0 0 1.2.9c.2.1.5.2.7.2v.1c0 .8-.1 1.7-.2 2.5l-.3 5.3c0 .4 0 .8.5.9v.8c0 .2-.1.3-.2.4-.3.4-.5.8-.7 1.3l-.9 2.8c-.1.4-.3.8-.5 1.2-.1.4-.3.7-.4 1.1-.2.4-.3.8-.5 1.2-.3.6-.6 1.3-1 1.9-.1.2-.3.5-.5.6-.1.1-.2.3-.3.4-.1.3-.1.6-.1.9 0 .5.2.9.8 1h.1.5.1c.3 0 .5-.1.7-.3.4-.4.9-.9 1.2-1.4.2-.3.3-.5.4-.8.3-.5.5-1 .7-1.5 0 .4 0 .9-.1 1.4v.2c.1.5.3.7.8.7h10 .2c.2 0 .3-.1.4-.2s.2-.3.2-.5c.1-.5 0-.9 0-1.4a.76.76 0 0 0 .2.4c.2.5.5 1 .7 1.4a6.42 6.42 0 0 0 1 1.3c.3.3.5.7 1 .7h.1.4.3c.4-.1.7-.5.7-.9v-1c0-.3-.1-.5-.4-.7l-.3-.3c-.3-.4-.5-.9-.8-1.3-.3-.6-.6-1.2-.8-1.9-.2-.4-.3-.7-.4-1.1l-.5-1.4-.7-2.2c-.2-.6-.3-1.2-.7-1.7-.1-.1-.2-.2-.2-.4v-1c.3-.2.5-.4.4-.7l-.3-4.5-.3-5c0-.6-.1-1.2-.1-1.7s0-1-.1-1.4c0-.3-.2-.5-.5-.6-.3 0-.5.1-.7.3 0 .1-.1.2-.1.3l.2 3.2c0 .5.1 1 .1 1.5 0 .6.1 1.2.1 1.8l-6.9-9.1c.5 0 .9-.1.9-.7 1.3.9 2.5.9 3.8 0 .1.5.2.6.7.6l2.6.1 5.5.3 2.1.1v.6 1.5c0 .1 0 .2-.1.3-.9.7-1.9 1-2.9 1.2a13.33 13.33 0 0 1-2.8.3c-.5 0-.8.4-.6.9l.3.3h.5c1.1 0 2.2-.1 3.2-.4a7.14 7.14 0 0 0 3.2-1.4c.2-.2.3-.3.3-.6v-.8c.1 0 .2-.1.3 0 .5.1.9-.1 1.3-.1.3 0 .6-.2.8-.2.4-.1.7-.3 1-.6.6.3.6-.1.4-.5zM3.9 19.8l-1.8-.3-.8-.3c-.1 0-.1-.1 0-.2.1-.2.2-.4.3-.5s.1-.1.2-.1c.4.2.9.3 1.4.3.2 0 .4 0 .7.1v1zm12 25.1h-2.7l.1-2.3h0c.6 1.1 1.6 1.7 2.6 2.3h0zm3.5 0h0c.2-.2.4-.3.6-.4.8-.4 1.5-1.1 2-1.8 0 0 .1-.1.1-.2l.1 2.5c-.9-.1-1.9-.1-2.8-.1zm3.5-7.9l.8 2.6c.3 1 .7 1.9 1.1 2.8l.9 2s.6 1.2 1.1 1.6c.1.1.2.2.2.4v.5c-.2 0-.4-.1-.5-.2-.4-.3-.7-.7-.9-1.1-.7-1.1-1.2-2.3-1.6-3.5l-1.2-3.5c-.2-.5-.3-1.1-.5-1.7-.3-.9-1-1.3-1.9-1.5-.5 0-.8 0-1.1-.1.2.5.3 1 .7 1.2.7.5 1.2 1.1 1.5 1.9.1.5.2 1.1.2 1.6 0 .7-.2 1.3-.5 1.9a4.1 4.1 0 0 1-1.6 1.6l-1.6 1a.45.45 0 0 1-.5 0l-1.8-1.1c-.5-.3-1-.7-1.3-1.3-.6-1-.8-2-.7-3.2.1-.6.2-1.1.5-1.6.2-.3.5-.6.8-.8.5-.3.8-.8.9-1.4-.3 0-.5 0-.7.1-.5.1-1 .3-1.4.7-.4.3-.6.7-.7 1.2-.3 1.1-.7 2.1-1.1 3.2l-1.2 3-1.2 2.3c-.2.4-.5.7-.9 1-.1 0-.2.1-.4.1V46s0-.1.1-.1c.4-.3.6-.7.9-1.1l1.2-2.5.9-2.3s.5-1.6.8-2.4c.2-.5.3-1 .5-1.5.3-.7.9-1.1 1.5-1.4.5-.2 1.1-.4 1.7-.4.1 0 .1 0 .2-.1v-.3H19c.1.4.1.4.4.4.6 0 1.2.2 1.8.5.9.7 1.4 1.4 1.7 2.2zM19 26.5l2.9 3.8c.1.1.1.2.1.4l.1 2.5v.2h-9v-.5l.3-4.7.3-5 .1-2.2a.68.68 0 0 0-.7-.7.65.65 0 0 0-.6.6c0 .5-.1 1.1-.1 1.6s-.1 1-.1 1.5c-.5-.1-.9-.3-1.1-.8-.2-.3-.4-.4-.7-.4-1.4 0-2.7-.2-4.1-.6-.6-.2-1.2-.5-1.7-.9 0 0-.1-.1-.1-.2V19h0c.4 0 .9 0 1.3-.1l3.9-.2 2.8-.1c.1 0 .2.1.2.1l6.2 7.8zm1.1-11.3c-.2.1-.3.1-.5.2s-.3.1-.2.3c0 .1-.1.2-.1.3-.2.5-.5.9-1.1 1.1-.9.2-1.8-.1-2.1-1.1 0-.1-.1-.2-.2-.2 0-.1.1-.2.1-.2l-.1-.1c-.3 0-.6-.2-.8-.3-.3-.2-.5-.4-.7-.6-.3-.4-.5-.8-.6-1.2-.1-.3-.1-.6-.2-1-.1-.5 0-.9 0-1.4 0-.2.1-.4.1-.6s.1-.4.2-.7h-.2-.9c-.4 0-.7-.1-1.1-.2-.3-.1-.6-.2-.8-.4-.4-.3-.5-.8-.3-1.3.1-.4.3-.7.5-1 .4-.6.8-1.1 1.1-1.7.3-.4.4-.9.5-1.3.1-.6.1-1.1 0-1.7 0-.1-.1-.2-.1-.4 0-.1.1-.3.2-.3.2 0 .3-.1.5-.1.1 0 .1 0 .2.1.1.4.2.7.2 1.1.1.3 0 .5 0 .8 0 .4-.1.7-.2 1.1s-.3.7-.4 1.1a9.13 9.13 0 0 1-.8 1.3l-.6.9c-.1.2-.2.3-.3.5-.1.3 0 .4.3.5.2 0 .4 0 .6.1.6.2 1.2.1 1.8.1.2 0 .3 0 .4-.2.4-.7 1-1.1 1.7-1.4.3-.2.7-.2 1.1-.3.3-.1.5-.1.8-.1.2 0 .4.1.6.1.5.1 1 .3 1.4.6s.8.6 1.1 1c.1.1.2.2.3.2.6.1 1.2.1 1.8-.1.3-.1.5-.1.7-.2s.2-.2.1-.4c-.2-.3-.4-.6-.5-.9l-.8-1.1-.6-1c-.3-.6-.4-1.2-.4-1.9 0-.6.1-1.2.2-1.7 0-.1.1-.1.1-.1.3 0 .6.1.8.3v.1c-.3.5-.3 1-.3 1.5 0 .6.2 1.2.5 1.8.2.3.4.5.5.8.2.4.5.7.7 1.1.2.3.4.6.5 1 .2.7-.2 1.2-.8 1.5-.4.2-.7.2-1.1.3s-.9 0-1.3 0c-.2 0-.2 0-.2.2.2.7.2 1.4.2 2.2 0 .6-.1 1.3-.4 1.9-.1.4-.3.6-.6.9 0-.1-.2.1-.5.2zm14 4.1c-.4.2-.8.4-1.3.4-.3 0-.5.1-.8.1h-.5v-.9c.4 0 .7-.1 1-.1l1-.3c.1 0 .2 0 .3.1.1.2.2.4.3.5.1 0 .1.1 0 .2z"/></svg>