<svg xmlns="http://www.w3.org/2000/svg" viewBox="0 0 75.3 203.1" xmlns:v="https://vecta.io/nano"><path fill="#64bc41" d="M73.7 96.9a4.53 4.53 0 0 0-1.6-.3l-9.2.6c-.4 0-.9 0-1.1.3l-3.3 3.9c-.5.6-1.4 1.5-1.9 1.3-1.1-.4-2.7-1.1-3-1.9-1.1-4.7-3.7-9.2-3.2-14.3.2-2.4-1.2-4.4-2.9-5.3-2.7-1.5-3.8-3.5-4.1-6.2-.2-1.5.1-3.1.1-4.7l-.1-9.6 9.8-.6-10-1.9v-1.7l7.2-2.4c-.1-.2-.1-.3-.2-.5l-8.1 1.2c-.5-.7-1-1.5-1.5-2.2 1.1-1.7 2.2-3.5 3.4-5.2l-5.2 4.3c-1.1-.2-2.2-.4-3.3-.7l-1.8-7.7c-.1 0-.3 0-.4.1l-.8 7.8-3.4.6c-1.7-1.4-3.2-3-5.7-3.2l4.2 4.5-1.4 2h0l-7.3-.7c-.1-1.5 0-3.1-.3-4.6L14.2 29c-.5-2.2-1.4-4.4-2.6-6.4-1.6-2.7-1.4-4.4 1.4-5.9 1.7-.9 3.1-1.9 1.9-4.2-.1-.3.3-.8.2-1.2-.1-.7-.2-1.8-.6-2-1-.6-2.3-.8-3.4-1.2.8-1.7 1.6-3.4 2.5-5.1A32.7 32.7 0 0 1 15.1.3C12.9.2 11-.2 9.2.1 7.6.3 5.9.8 4.7 1.8c-1.4 1-1 2.7-.3 4.2.2.5.2 1.1.4 1.6h0C1.4 8.2 1 8.7.7 11.8c0 .2 0 .5-.2.7-1.2 2 .1 3 1.6 4.1 1 .8 1.8 2.2 2.1 3.5.3 1.4-.1 2.9.1 4.3.3 2.6 1.1 5 .9 7.8-.1 1.6 1.3 4 2.7 5 1.1.7 1.4 1.1 1.4 2.2.1 5.2-.1 10.3 1.5 15.4.9 3 .7 5.9-1.3 8.7-3.3 4.7-3.4 9.9-1.8 15.3.4 1.6.7 3.2 1.1 4.8 1.6 3 .9 6.1.6 9.2.2.7.4 1.3.5 2l2.1 3.5c2.9 4.6 3.9 7.1.1 11-2.4 2.4-3.5 5.6-4.2 8.9-.4 2 .4 3.5 2.3 4.1.9.3 1.9.7 2.8.6 1.6-.1 1.9.8 2 2 0 1.6 0 3.2.1 4.9-.6 2-1.3 3.9-1.9 5.9h0c-.2.6-.5 1.2-.5 1.8l.8 13.8c.1 2.3 1.4 4.6-.4 6.8-1.4 1.8-1.3 3.6-.1 5.4l.3.9c-1.6 4.4-3.6 8.7-4.6 13.2-1.2 5.4-2.3 11 .1 16.4 0 .3.1.7.1 1-.1 1.3-.1 2.6-.2 3.8-1.5-.1-2.8-.3-2.8 2 0 2.1 1 2.3 2.7 2.3h46.5c1.7 0 2.5-.3 2.5-2.2 0-2-.8-2.4-2.5-2.1 0-.4-.1-.8-.1-1.2.4-5.6-.5-11.2 1.1-16.8 1.1-3.8.4-8 .5-12.1.2-1.8.5-3.6.7-5.4h0c.4-1.5 1.1-2.9 1.2-4.4 0-3.8-.2-7.7-.4-11.5l-.6-13.7c.2-.3.3-.6.6-.8 3.7-2.2 3.8-5.6 3.6-9.5-.1-1.9 1.4-4 2.2-5.9.1-.2.5-.4.8-.5 2.9-1.1 4.6-3.4 6-6 .6-1.2 1.2-2.5 1.9-3.6 1.3-1.9 1.8-3.7.5-5.8.4-.5.9-1 1.3-1.4 1.4-1.5 1.3-2.3-.7-3.3zM24.6 60.3c-.1 1.2-.1 2.5-.7 3.9-.9-1.4-1.1-2.7-1.3-4 .6 0 1.3.1 2 .1zm-.1-3v1c-.8.1-1.7.3-2.5.4v-.2c0-.7-.5-1.1-.9-1.5 1.1.4 2.2.6 3.4.3z"/><path opacity=".2" d="M8.5 198.8l19.2.1c3.3.1 4.9-1.8 5.6-4.5.4-1.4.4-2.9.6-4.3.2-1.2.4-2.3.9-3.4v9.8c0 1.4.2 2.4 1.9 2.3 1.9-.1 1.9-1.3 1.7-2.7l-.9-9.3c.3-.1.6-.1.9-.2l.7 2.7.7 6.8c.2 1.9 1.2 2.9 3.2 2.8 4-.1 7.9 0 11.9-.1 1.7-.3 2.5.2 2.5 2.1s-.8 2.2-2.5 2.2H8.4c-1.7 0-2.7-.2-2.7-2.3 0-2.3 1.3-2.1 2.8-2zm48.8-65.1c-3.9-2.3-4.2-7.6-.5-10 3.6-2.3 5.5-5.9 7.3-9.5 2.2-4.7 4.9-9.1 8.9-12.5 1.3 2 .8 3.9-.5 5.8-.8 1.1-1.3 2.4-1.9 3.6-1.4 2.6-3.1 4.9-6 6-.3.1-.7.2-.8.5-.8 2-2.3 4-2.2 5.9.2 3.9.1 7.3-3.6 9.5-.4.1-.6.4-.7.7zM11.1 8.2l-6.5-.5c-.1-.5-.1-1.1-.4-1.6-.7-1.5-1-3.2.3-4.2C5.7 1 7.5.4 9 .2c1.8-.2 3.7.1 5.9.2l-1.5 2.7-2.3 5.1zM9.2 92.8c3.8-.5 6.2-2.9 7.8-6.2l4.1-8.9c.4 6.9-4.8 14.4-11.4 17-.2-.5-.3-1.2-.5-1.9zm5.7 37c3.5-4.3 5.1-9.5 7-14.6.2-.6.4-1.2.9-1.8 0 .5 0 1-.1 1.4-1.6 6.8-4.5 13.1-8 19.2-.4.7-1.1 1.1-1.7 1.7a134.56 134.56 0 0 0 1.9-5.9zm-7.4-51l8.2-7.7c.2.2.5.4.7.7-.4.6-.8 1.3-1.3 1.7-2.8 1.5-4 4.1-5 6.9-.4 1.1-1 2.2-1.5 3.3l-1.1-4.9zm48.9 89.9c-1.5-1-3.1-1.9-4.4-3.2-1.2-1.1-.9-2 .8-2.1l4.3-.1-.7 5.4zm-43.6-5.3l14.5-10.8s-.1.5-.3.7c-3.4 3.2-6.9 6.3-10.4 9.4-.9.8-2.3 1.1-3.5 1.6l-.3-.9zM35.4 51l-3 .1.8-7.8c.1 0 .3 0 .4-.1l1.8 7.8zm8 9.7l-.2-2.6 10 1.9-9.8.7zm-.2-4.3l-1.1-1.7 8.1-1.2c.1.2.1.3.2.5l-7.2 2.4zm-17.1-1.3c-.2.6-.3 1.2-.5 1.8-2.5 1.3-4.6.3-6.8-.9v-1.6l7.3.7zm2.9-3.4l-1.5 1.4-4.2-4.5c2.5.1 4 1.7 5.7 3.1zm11.6.8l-1.8-.9 5.3-4.5h0l-3.5 5.4zM8.6 194l3-.6c.1.1.1.3.2.4l-3.1 1.1c0-.3-.1-.6-.1-.9z" fill="#666"/><path opacity=".2" d="M44.1 47.2c0-.1 0-.1.1-.2h.2c-.2 0-.3.1-.3.2-.1-.1 0 0 0 0z"/><path opacity=".2" d="M19.8 101.7c2.9-7.2 10.4-10.5 14.4-16.8.2.1.3.2.5.3-.5 1-.8 2.3-1.5 3.1l-13.4 13.4zm4.3 2.8l5.2-6.1 5.5-6.8c.6-.7 1.3-1.2 2-1.7h0c-3.1 5.9-7.3 10.7-12.7 14.6h0zm-10.7 14.8c-.5-3.6 3.1-9.5 7.3-11.8-2.5 3.9-4.9 7.8-7.3 11.8zM29 181.8l10.4-6.4c.3-.2.7-.2 1.2 0-3.4 2.9-7.5 4.7-11.6 6.4h0zm-4.4-60.3l4.9-11.4c.2.1.5.2.7.3-1.1 4.1-2.9 7.8-5.6 11.1h0zM48 161.8l-6.9 5.4c.6-2.6 3.8-5.1 6.9-5.4zM22 127l-4 8.8c-.2-.1-.5-.2-.7-.3l3.9-8.8.8.3zm27.9-14.2c-2.4-1.8-2.6-4.5-3.4-7.1.2-.1.5-.2.7-.3l2.7 7.4h0zm-28.7-54l4.2-.7.1 2.3-4.2-.2c0-.5 0-.9-.1-1.4zM14.9 68c-1.2.8-2.6 1.5-3.7.3-.5-.6-.3-1.9-.1-3.1 0 3.1 2 2.9 3.8 2.8h0zm39.4 39.9l-1.1-3.7c.3-.1.6-.1.9-.2l.2 3.9h0z" fill="#666"/><path opacity=".2" d="M50.6 160c-.1 0-.1-.1-.2-.1l.1-.1s.1 0 .1.1v.1zM29 181.8c-.2.1-.4.2-.5.4 0-.1-.1-.1-.1-.2.2-.1.4-.1.6-.2h0zm21.4-67.6c-.2-.5-.3-1-.5-1.4h0c.2.5.3 1 .5 1.4h0z"/><path opacity=".2" d="M50.4 114.2l.1.2-.1-.2zm-34-47.1l.1-.1-.1.1zm-.5.5c-.3.2-.6.3-1 .5h0a4.67 4.67 0 0 1 1-.5h0zm20.9 22.3h0 0zm-12.7 14.6h0 0zm.5 17h0 0zm29.7-13.6l.5.5h0c-.2-.2-.4-.3-.5-.5h0z"/><path opacity=".2" d="M54.8 108.4h0 0zM16.4 67.1l-.5.5h0c.1-.2.3-.4.5-.5h0z"/></svg>