<svg xmlns="http://www.w3.org/2000/svg" viewBox="0 0 639.9 210" xmlns:v="https://vecta.io/nano"><g fill="#64bc41"><path d="M425.4 40.1c-77.2 4.8-106.2 37.3-129.4 74.1l2.6 5.3c16 32.6 31.5 66.7 59.7 90.5h271.1 9.9C543 163.1 574.5 50 425.4 40.1z"/><path d="M298.6 119.5l-2.6-5.3c-22.5-45.3-47.6-86.4-111.9-91.8C58.8 32.2 93.6 169.2 0 210h11.3 199.4 10.7 130.1 6.8c-28.2-23.9-43.6-57.9-59.7-90.5z"/></g><g fill="#666"><path opacity=".2" d="M425.4 40.1c-77.2 4.8-106.2 37.3-129.4 74.1l2.6 5.3c23-37.1 50.5-69.5 126.8-74.4 85.3 5.8 109.2 45.9 134.5 88.3 15.3 25.6 31.1 52 60.6 71.5l8.9 5h9.9C543 163.1 574.5 50 425.4 40.1z"/><path opacity=".2" d="M184.1 22.4C58.8 32.2 93.6 169.2 0 210h11.3l8.5-5.1c30.5-20.5 44.6-52.6 58.5-83.9 20.1-45.4 39.1-88.2 105.8-93.6 66.8 5.7 89.4 52 113.3 100.9 13.2 27 26.8 54.7 48.2 76.6l5.9 5h6.8c-69.2-58.4-61.4-178.1-174.2-187.5z"/></g></svg>