<svg xmlns="http://www.w3.org/2000/svg" xml:space="preserve" viewBox="0 0 279 1180.6"><path fill="#64BC41" d="M278.9 520.9v-.4c-2.3-27.4-24.8-12.1-33.1-63.8H31.3c-.1.4-.1.8-.2 1.2-8 51.7-28.8 35.6-31 63-.1 1.8-.1 3.3 0 4.6v322.6L0 864.7c1.6 1.5 3.7 2.5 6 2.8l14 17.9h237.2l13-17.9h1.9c.1 0 .1-.1.2-.1 3.1-1.1 5.5-3.4 6.7-6.4V520.9z"/><path d="M266.8 865.9h1.8c.1 0 .1 0 .2-.1 3-1.1 5.3-3.4 6.5-6.4V521.2h-.1v-.4c-2.2-27.2-24.1-12-32.1-63.4H34.7c-.1.4-.1.8-.2 1.2-7.8 51.4-28 35.4-30.1 62.7-.1 1.8-.1 3.3 0 4.6v320.7l-.1 16.5c1.6 1.5 3.6 2.5 5.8 2.8" opacity=".2"/><path fill="#FFF" d="M278.9 520.9v-.4c-2.3-27.4-24.8-12.1-33.1-63.8H31.3c-.1.4-.1.8-.2 1.2-8 51.7-28.8 35.6-31 63-.1 1.8-.1 3.3 0 4.6v322.6L0 864.7c1.6 1.5 3.7 2.5 6 2.8l14 17.9h237.2l13-17.9h1.9c.1 0 .1-.1.2-.1 3.1-1.1 5.5-3.4 6.7-6.4V520.9z" opacity=".2"/><path fill="#FFF" d="M267.5 868H8l11.7 14.2H257" opacity=".5"/><path d="m19.7 882.2 1.6 2.2h234.2l1.5-2.2z" opacity=".3"/><path fill="none" d="M140.5 402.4c-65.3 0-118.2 21.5-118.2 48v270.9h236.4c5.5-89 5-124.4 1.8-131.6-.1-.3-1-2.2-1.8-4.9-3.1-10.9-.5-20.4 0-22.4 1.8-7.7 2.9-33.6 0-111.9-21.2-16.6-62.2-48.1-118.2-48.1" opacity=".5"/><path d="M211.2 459h-147c-9.2 0-16.7.9-16.7 2s7.5 2 16.7 2h147c9.2 0 16.7-.9 16.7-2s-7.4-2-16.7-2" opacity=".5"/><path d="M.3 802.1c.3.8.7 1.2 1 1.2 4.6.2 10.7-61.9 13.7-138.6 1.1-27.4 1.6-52.9 1.6-74.4l.7-64.2c0-10-3.8-18-8.5-18-4.6 0-8.3 7.7-8.5 17.3M15.4 865.1c-4-.6-6.8-3.2-6.7-5.6 0-3 4.5-5.1 7.9-5.2 2.4 0 3.5 1.1 6.7 2.5 4.5 1.9 8.5 2.3 11 2.5 5.3.4 10.6-.4 15.7.9.8.2 2.2.6 2.5 1.6.4 1.3-1.3 2.7-1.6 2.9M236.7 857.7c3.9-2.8 8.2-4 12.8-4.7 6.8-1.1 10.3-1.6 11.9.4 1.8 2.2.4 5.9.2 6.3-1.1 2.8-3.7 5.1-6.5 5.4-3.5.4-3.7-2.6-9-3.4-2.2-.3-6-.4-8.3-.4-1.9 0-3.3 0-3.6-.7-.2-.8 1.7-2.3 2.5-2.9M274.4 564.8c-1.1-6.5-2.2-8.2-3.8-9.2-3.2-1.8-6.8-2.2-8.5.7s-.5 5.5-1.3 9.4c-1 5-1.8 6.3-2.5 10.1-.2 1.4-.5 2.8-.7 4.1H276c.5-3.2-.3-7.8-1.6-15.1" opacity=".3"/><g fill="#FFF"><path d="M256.9 610.8v-67.1c0-27.7-52.8-50.2-118-50.2s-118 22.5-118 50.2v67.1" opacity=".25"/><path d="M42.2 610.8c0-29.2 44.3-52.9 98.9-52.9s98.9 23.7 98.9 52.9h14.8v-54.7c0-26.5-51.6-48-115.3-48s-115.3 21.5-115.3 48v54.7" opacity=".25"/><path d="M141 557.8c54.6 0 98.9 23.7 98.9 52.9h10.5v-45.9c0-25.7-49.7-46.5-111.1-46.5S28.2 539.2 28.2 564.9v45.9h13.9c.1-29.3 44.3-53 98.9-53" opacity=".25"/></g><path d="M244.8 479.1s-2.2-12.7-9.1-22.4h-198c.7.8 1.8 1.9 2.1 4 .5 3.2-1.2 5.8-2.2 7.6-1.2 2-7.1 12.2-6 20.5.1.5 1 6.3 5.5 9.8 6.3 4.9 15.8 2.2 20.4 1.1 14.4-3.3 14.2 1.8 46.9 2.9 34.1 1.1 65.6-3.4 66.8-3.6 17.4-2.6 24.2-5 35.2-1.9 7.3 2.1 13.2 5.7 22.6 4.3 3-.4 10.7-1.5 14.5-7.5.8-1 3-4.9 1.3-14.8" opacity=".2"/><path fill="#FFF" d="M276 579.9H41v.1c-10.7 1.2-19.1 10.3-19.1 21.3V766h.2v60.8c-.1.9-.2 1.8-.2 2.7s.1 1.8.2 2.7v.1c1.3 9.8 9 17.5 18.9 18.6v.1h238V579.9z"/><path fill="#FB1B28" d="M38.1 596.9h109.4v109.4H38.1z"/><path fill="#FFF" d="m92.8 600.4 16.8 34.1 37.6 5.4-27.2 26.5 6.4 37.5-33.6-17.7-33.6 17.7 6.4-37.5-27.2-26.5 37.6-5.4z"/><path fill="#2340BE" d="M147.5 596.9h109.4v109.4H147.5z"/><path fill="#FFF" d="m202.2 600.4 16.8 34.1 37.6 5.4-27.2 26.5 6.4 37.5-33.6-17.7-33.6 17.7 6.4-37.5-27.2-26.5 37.6-5.4z"/><path fill="none" d="M46.1 796.8H235v49.3H46.1z"/><text font-family="'KozGoPr6N-Regular-90ms-RKSJ-H'" font-size="18" letter-spacing="1" transform="translate(46.093 811.227)">メタリックペイント</text><path fill="#64BC41" d="m31.1 457.9 215-.9 30.3-8.1V296.6H2.5v152.3"/><path fill="#FFF" d="M2.5 296.6h273.9v5.6H2.5z" opacity=".2"/><path d="M130.6 303.7h9V450h-9z" opacity=".1"/><path d="M133.4 309.5h3.5v134.9h-3.5z" opacity=".2"/><path d="M144.4 303.7h9V450h-9z" opacity=".1"/><path d="M147.2 309.5h3.5v134.9h-3.5z" opacity=".2"/><path d="M116.6 303.8h9v146.3h-9z" opacity=".1"/><path d="M119.3 309.6h3.5v134.9h-3.5z" opacity=".2"/><path d="M172.5 304.2h9v146.3h-9z" opacity=".1"/><path d="M175.2 310h3.5v134.9h-3.5z" opacity=".2"/><path d="M186.3 304.2h9v146.3h-9z" opacity=".1"/><path d="M190 310h3.5v134.9H190z" opacity=".2"/><path d="M158.5 303.9h9v146.3h-9z" opacity=".1"/><path d="M161.3 309.7h3.5v134.9h-3.5z" opacity=".2"/><path d="M214.2 304.4h9v146.3h-9z" opacity=".1"/><path d="M217.9 310.2h3.5v134.9h-3.5z" opacity=".2"/><path d="M228 304.4h9v146.3h-9z" opacity=".1"/><path d="M232.5 310.2h3.5v134.9h-3.5z" opacity=".2"/><path d="M200.2 304.1h9v146.3h-9z" opacity=".1"/><path d="M204 309.9h3.5v134.9H204z" opacity=".2"/><path d="M255.9 304.6h9v146.3h-9z" opacity=".1"/><path d="M260.4 310h3.5v134.9h-3.5z" opacity=".2"/><path d="M269.7 304.6h6.5v146.3h-6.5z" opacity=".1"/><path d="M272.9 310.4h3.3v134.9h-3.3z" opacity=".2"/><path d="M241.9 304.3h9v146.3h-9z" opacity=".1"/><path d="M246.4 310.1h3.5V445h-3.5z" opacity=".2"/><path d="M5.1 303.2h9v146.3h-9z" opacity=".1"/><path d="M5.1 309h3.1v134.9H5.1z" opacity=".2"/><path d="M33.1 303.7h9V450h-9z" opacity=".1"/><path d="M32.9 309.8h3.5v134.9h-3.5z" opacity=".2"/><path d="M46.9 303.7h9V450h-9z" opacity=".1"/><path d="M47.9 309.5h3.5v134.9h-3.5z" opacity=".2"/><path d="M19.1 303.4h9v146.3h-9z" opacity=".1"/><path d="M20.2 309.2h3.5v134.9h-3.5z" opacity=".2"/><path d="M74.8 303.9h9v146.3h-9z" opacity=".1"/><path d="M76.6 309.6h2.8v134.9h-2.8z" opacity=".2"/><path d="M88.6 303.9h9v146.3h-9z" opacity=".1"/><path d="M90.4 309.6h3.5v134.9h-3.5z" opacity=".2"/><path d="M60.8 303.6h9v146.3h-9z" opacity=".1"/><path d="M62.6 309.4h3.5v134.9h-3.5z" opacity=".2"/><path d="M102.5 303.8h9v146.3h-9z" opacity=".1"/><path d="M105.3 309.6h3.5v134.9h-3.5z" opacity=".2"/></svg>