<svg xmlns="http://www.w3.org/2000/svg" viewBox="0 0 199 201.7" xmlns:v="https://vecta.io/nano"><path fill="#64bc41" d="M197.2 194.3c-14.3-32.1-28.1-38.9-57.9-54.7 1.9-4.9 3.9-14.1 2.7-19.3 6.1-5.2 10.5-6.8 18.4-7.6l-8.1-4L182 87.5c-7.4.8-25.3 3.1-32.3 5.4 2-22.6-2.2-20.8 21.1-24.7l-16.6-9 3.1-10.8c5.5-16.8 5-10.7 20.6-13.9l-15.3-7.6-17.5-3.1c9.9-5.1 15.8-11.3 22-20.2l-16.6.9-17.9 6.3L117.8 0v9.9c-3.3-1.8-10.4-4.9-13.9-6.3l2.7 10.8c2 2.9 6.1 8.2 4.9 12.1-19 12.4-10.1 11.2-33 6.8-.2.2 2.4 8.9 2.5 9.4v17.5c-2.3 4-2.5 13.5-2.2 17.9L53.7 66.9l-1.8 4c1.5 7 6.2 20 10.8 25.5l16.1 9.5-3.1 15.3c3.4 6.3 3.4 7.2.9 13.9C32.2 150.5 19 156.6 0 201.4h199l-1.8-7.1z"/><g fill="#666"><path opacity=".2" d="M27.2 165.1l-6.7 34.1c19.4-13.1 14.8-13.2 21.1-34.1H27.2h0zm61 17l-13 19.3h24.3zm81.2 9.7l4.9 9.6h19.3l-5.4-9.6zM117.8 9.9V0l14.8 10.8 17.9-6.3 16.6-.9c-6.8 10.4-17.4 19.7-29.6 22.9-3.1-.3-15.9 1.3-17.7-2.4l8.7-6.5-10.7-7.7zm28.4 99.7c6.2-2 9.1.4 14.2 3-7.9.8-12.3 2.4-18.4 7.6l4.2-10.6zM85 73.1l.5-11.4c1.7-3 16.2-20.5 14.5-24.2-1.5-.4-19.3-3.6-21.5-4.2-.3-.1 2.5 9.1 2.5 9.4v15.5c-.3 3 3 11.9 4 14.9zm16.4-27.3l12.8-4c5.5 0 14.6.9 19.2-3.2 6.8.5 22.1 1.9 28.4-1.8l-7.6 22.4c-.2 3.7.3 13.6-3.1 16.1-.9-17.4-10.3-22-22.5-31.2-6.9-.6-20.5.1-27.2 1.7zM40.9 199.2c7-13.8 29.9-42.6 40-54.6l14.8 13.5L84.1 116c.4-4-.5-46.6 3.2-48.4 16.6-9.3 18.3-15.1 39.2-13.3l20.9 14.1c3.8 13.2-2.6 24.4-6.2 36.2.6-6.1 5.6-28.9 1.3-34.3-12.9-8.8-16.4-11.9-32.6-13.3l-14.1 8.1-9.4 16 .2 32.5c4.3 10.8 5.8 11.4 15.6 17 6.9.9 19.2.4 25.9-1.3.2 2.4-8.8 4-10.2 4.7-10.1 1.3-15.8.2-25.1-3.9l3.5 30.6L81 146.4 55.1 180c-.9.5-12 24-14.1 21.5l-.1-2.3h0z"/><path opacity=".2" d="M136.3 118.8l-8.2 10.3-1 1.9-13.3 34.1c-.6.8-6.3 5.1-5.2 6.6 9.3-2.9 23.8-45.1 27.7-52.9zm-11.1 36.5l13.8-10.1c-.1 1.4 31.7 44.2 27.1 45.1l-.5-2.7-26.9-40.9-13.5 10.7v-2.1h0zm-33-82.2l2.8-2.9c5 1 13.6 5.3 17.6 8.4v10.1c-2.8 4.4-5.7 8.8 1.9 9.8-4.2 1.9-6.6 2.6-11.1.8-1.8-3.7 1.6-5 3.9-7.2l2.2-10.8C105 77.6 98.9 70 92.2 73.1zm26.6 4.5c6.5-.1 14.5-2.9 20 2.5l-7.2-1.8-11.5 1.8-1.3-2.5zm-17.4 33c4.4-2.3 10.3-2.1 14.6-2l6.3 4.5c-5.9-2.5-14.5-2.3-20.9-2.5zM116.7 98h3.2v2c-.7-.3-2.4-1.3-3.2-1m13.7-16.3c.1 2.4-5.3 2.4-5.2 0-.1-2.4 5.2-2.4 5.2 0zm-26.9-3.2c.1 2.4-5 2.4-5 0-.1-2.4 5-2.4 5 0zm-2.1-40.4l14.6-18 20.2 15.7c-24-14.7-14.7-20.5-34.8 2.3z"/></g></svg>